<svg width="316" height="316" viewBox="0 0 316 316" fill="none" xmlns="http://www.w3.org/2000/svg">
<path d="M64.086 316C52.3713 316 41.6411 313.145 31.8953 307.436C22.1495 301.627 14.3726 293.85 8.56449 284.105C2.85483 274.359 0 263.629 0 251.914C0 240.101 2.85483 229.321 8.56449 219.576C14.3726 209.83 22.1495 202.053 31.8953 196.245C41.6411 190.437 52.3713 187.533 64.086 187.533H98.3439V128.172H64.086C52.3713 128.172 41.6411 125.317 31.8953 119.607C22.1495 113.799 14.3726 106.072 8.56449 96.4243C2.85483 86.6785 0 75.8991 0 64.086C0 52.2729 2.85483 41.5427 8.56449 31.8953C14.3726 22.1495 22.1495 14.4218 31.8953 8.71217C41.6411 2.90406 52.3713 0 64.086 0C75.8991 0 86.6785 2.90406 96.4243 8.71217C106.17 14.4218 113.947 22.1495 119.755 31.8953C125.563 41.5427 128.467 52.2729 128.467 64.086V98.0486H187.828V64.086C187.828 52.2729 190.683 41.5427 196.393 31.8953C202.201 22.1495 209.928 14.4218 219.576 8.71217C229.321 2.90406 240.101 0 251.914 0C263.727 0 274.457 2.90406 284.105 8.71217C293.85 14.4218 301.578 22.1495 307.288 31.8953C313.096 41.5427 316 52.2729 316 64.086C316 75.8991 313.096 86.6785 307.288 96.4243C301.578 106.072 293.85 113.799 284.105 119.607C274.457 125.317 263.727 128.172 251.914 128.172H217.951V187.533H251.914C263.727 187.533 274.457 190.437 284.105 196.245C293.85 202.053 301.578 209.83 307.288 219.576C313.096 229.321 316 240.101 316 251.914C316 263.629 313.096 274.359 307.288 284.105C301.578 293.85 293.85 301.627 284.105 307.436C274.457 313.145 263.727 316 251.914 316C240.101 316 229.321 313.145 219.576 307.436C209.928 301.627 202.201 293.85 196.393 284.105C190.683 274.359 187.828 263.629 187.828 251.914V217.656H128.467V251.914C128.467 263.629 125.563 274.359 119.755 284.105C113.947 293.85 106.17 301.627 96.4243 307.436C86.6785 313.145 75.8991 316 64.086 316ZM64.086 285.877C70.3863 285.877 76.096 284.351 81.215 281.299C86.4324 278.247 90.567 274.162 93.6187 269.043C96.7688 263.826 98.3439 258.116 98.3439 251.914V217.656H64.086C57.8841 217.656 52.1745 219.231 46.957 222.381C41.838 225.433 37.7526 229.568 34.7009 234.785C31.6492 239.904 30.1234 245.614 30.1234 251.914C30.1234 258.116 31.6492 263.826 34.7009 269.043C37.7526 274.162 41.838 278.247 46.957 281.299C52.1745 284.351 57.8841 285.877 64.086 285.877ZM64.086 98.0486H98.3439V64.086C98.3439 57.7857 96.7688 52.076 93.6187 46.957C90.567 41.838 86.4324 37.7527 81.215 34.701C76.096 31.6492 70.3863 30.1234 64.086 30.1234C57.8841 30.1234 52.1745 31.6492 46.957 34.701C41.838 37.7527 37.7526 41.838 34.7009 46.957C31.6492 52.076 30.1234 57.7857 30.1234 64.086C30.1234 70.3863 31.6492 76.1452 34.7009 81.3626C37.7526 86.4816 41.838 90.567 46.957 93.6187C52.1745 96.572 57.8841 98.0486 64.086 98.0486ZM217.951 98.0486H251.914C258.214 98.0486 263.924 96.572 269.043 93.6187C274.162 90.567 278.247 86.4816 281.299 81.3626C284.351 76.1452 285.877 70.3863 285.877 64.086C285.877 57.7857 284.351 52.076 281.299 46.957C278.247 41.838 274.162 37.7527 269.043 34.701C263.924 31.6492 258.214 30.1234 251.914 30.1234C245.614 30.1234 239.855 31.6492 234.637 34.701C229.518 37.7527 225.433 41.838 222.381 46.957C219.428 52.076 217.951 57.7857 217.951 64.086V98.0486ZM251.914 285.877C258.214 285.877 263.924 284.351 269.043 281.299C274.162 278.247 278.247 274.162 281.299 269.043C284.351 263.826 285.877 258.116 285.877 251.914C285.877 245.614 284.351 239.904 281.299 234.785C278.247 229.568 274.162 225.433 269.043 222.381C263.924 219.231 258.214 217.656 251.914 217.656H217.951V251.914C217.951 258.116 219.428 263.826 222.381 269.043C225.433 274.162 229.518 278.247 234.637 281.299C239.855 284.351 245.614 285.877 251.914 285.877ZM128.467 187.533H187.828V128.172H128.467V187.533Z" fill="white"/>
</svg>
